<?xml version="1.0" standalone="no"?>
<!DOCTYPE svg PUBLIC "-//W3C//DTD SVG 20010904//EN"
 "http://www.w3.org/TR/2001/REC-SVG-20010904/DTD/svg10.dtd">
<svg version="1.0" xmlns="http://www.w3.org/2000/svg"
 width="1200.000000pt" height="1200.000000pt" viewBox="0 0 1200.000000 1200.000000"
 preserveAspectRatio="xMidYMid meet">
<metadata>
Created by potrace 1.14, written by Peter Selinger 2001-2017
</metadata>
<g transform="translate(0.000000,1200.000000) scale(0.100000,-0.100000)"
fill="#000000" stroke="none">
<path d="M3725 11904 c-97 -18 -175 -39 -175 -46 0 -4 -8 -8 -18 -8 -19 0
-153 -74 -191 -105 -104 -88 -197 -216 -242 -335 -23 -60 -24 -67 -39 -155 -6
-39 -10 -1884 -10 -5262 0 -5733 -5 -5275 63 -5431 18 -43 49 -102 69 -132 53
-79 187 -210 216 -210 6 0 12 -4 14 -9 8 -21 174 -90 263 -108 44 -9 4593 -9
4640 0 231 44 430 190 542 397 25 45 69 158 65 167 0 2 6 26 13 54 12 43 14
902 14 5287 -1 2879 -4 5244 -9 5256 -4 12 -13 46 -20 76 -7 30 -17 61 -23 68
-5 6 -7 12 -3 12 9 0 -40 96 -77 150 -63 93 -226 240 -266 240 -6 0 -11 5 -11
10 0 6 -6 10 -13 10 -7 0 -31 8 -53 19 -21 10 -64 24 -94 31 -30 7 -65 16 -77
21 -21 8 -4536 10 -4578 3z m4594 -215 c202 -51 358 -208 410 -411 19 -72 19
-215 19 -5263 0 -2855 -4 -5210 -8 -5235 -17 -94 -21 -107 -57 -177 -57 -114
-160 -212 -273 -261 -67 -29 -81 -33 -130 -40 -99 -15 -4605 -7 -4605 8 0 1
-9 3 -19 5 -57 11 -173 82 -235 144 -72 71 -105 123 -143 223 l-23 63 -3 5220
c-1 3148 2 5237 7 5265 17 81 20 94 38 135 39 91 113 183 193 238 25 18 47 32
50 32 3 0 15 6 28 13 35 20 103 43 141 48 19 2 36 6 38 8 2 2 1015 4 2251 4
2164 0 2250 -1 2321 -19z"/>
<path d="M5268 11200 c-20 -18 -31 -38 -35 -66 -4 -34 -1 -44 25 -72 17 -18
38 -32 49 -33 10 -1 324 -2 697 -3 500 -1 686 2 707 11 69 29 73 138 6 175
-17 9 -184 12 -721 13 l-698 1 -30 -26z"/>
<path d="M4394 10641 c-2 -2 -22 -5 -45 -7 -144 -13 -339 -112 -445 -225 -102
-110 -178 -252 -198 -369 -3 -19 -8 -46 -11 -60 -8 -33 -8 -2735 -1 -2780 18
-104 22 -117 66 -225 17 -44 93 -154 137 -200 122 -127 271 -206 443 -233 59
-9 3273 -9 3325 0 67 12 81 16 131 33 100 34 246 130 317 210 75 84 145 217
173 327 18 70 19 135 19 1468 0 767 -3 1413 -7 1435 -26 150 -105 294 -223
410 -71 69 -98 89 -190 134 -89 44 -169 68 -260 77 -64 7 -3224 12 -3231 5z"/>
<path d="M4137 6343 c-1 -1 -41 -4 -88 -7 -152 -10 -233 -27 -334 -72 -73 -32
-185 -171 -185 -231 0 -52 34 -68 145 -68 116 0 143 13 170 82 31 77 42 86
140 109 155 36 364 34 508 -5 82 -23 101 -39 122 -102 21 -63 53 -81 155 -84
88 -4 140 11 156 44 19 36 -11 103 -79 177 -78 85 -149 118 -302 139 -71 10
-402 25 -408 18z"/>
<path d="M7577 6344 c-1 -1 -41 -4 -88 -8 -47 -4 -97 -9 -110 -11 -13 -3 -40
-8 -58 -11 -19 -3 -67 -17 -105 -31 -60 -21 -81 -35 -137 -93 -147 -151 -124
-232 64 -226 101 3 126 18 163 96 30 63 33 66 85 82 52 16 72 20 170 33 88 12
243 7 328 -10 118 -23 170 -53 171 -95 0 -31 50 -89 83 -98 45 -12 177 -7 209
8 105 50 -74 289 -244 326 -13 3 -36 7 -53 9 -16 3 -41 7 -55 10 -40 8 -415
25 -423 19z"/>
<path d="M7616 6078 c-80 -17 -158 -94 -183 -179 -47 -163 77 -330 247 -334
43 -1 129 23 147 41 7 7 24 21 38 32 14 11 38 45 53 76 23 45 28 66 26 116 -7
174 -156 287 -328 248z m111 -117 c19 -1 71 -50 85 -79 29 -58 -2 -150 -60
-181 -40 -21 -100 -19 -142 6 -22 13 -40 30 -40 38 0 7 -4 15 -10 17 -14 5
-19 89 -6 118 24 54 88 93 141 85 11 -2 25 -4 32 -4z"/>
<path d="M6898 5485 c-2 -2 -15 -5 -28 -7 -31 -4 -63 -27 -78 -55 -9 -16 -12
-156 -12 -497 l0 -476 -67 0 c-478 -3 -1487 0 -1491 4 -3 3 -4 207 -4 453 1
267 -3 461 -9 479 -6 19 -22 38 -42 48 -29 16 -100 17 -883 14 -824 -3 -853
-4 -873 -22 -56 -51 -34 -158 36 -171 10 -2 367 -4 794 -4 l776 -1 0 -463 c0
-492 0 -492 49 -524 23 -15 103 -16 912 -16 488 0 904 3 924 7 24 4 44 17 58
35 19 28 20 42 20 511 l0 482 30 -4 c17 -3 30 -1 30 4 0 5 4 7 10 3 8 -5 25
-6 110 -4 8 0 114 0 235 -1 290 -1 416 -1 438 -1 49 2 194 3 217 2 41 -2 105
1 112 5 4 3 8 2 8 -3 0 -4 37 -7 82 -5 46 1 112 2 148 1 36 0 72 0 80 0 8 1
29 1 46 1 48 -1 94 47 94 97 -1 66 -47 104 -127 103 -26 0 -57 0 -68 -1 -43 0
-291 0 -305 0 -8 0 -80 0 -160 0 -80 0 -149 0 -155 0 -5 0 -86 0 -180 0 -93 0
-179 0 -190 0 -11 0 -121 0 -244 1 -123 0 -226 -1 -228 -4 -2 -2 -17 0 -33 4
-16 4 -30 7 -32 5z"/>
<path d="M5451 5181 c-51 -15 -54 -18 -55 -50 -1 -18 3 -35 7 -38 4 -3 29 5
54 17 129 60 255 -6 218 -114 -16 -44 -55 -92 -182 -221 -80 -81 -99 -106 -99
-130 0 -17 3 -32 7 -35 4 -3 87 -5 186 -5 l178 1 1 32 c0 18 -2 32 -5 33 -3 1
-62 2 -131 3 -69 0 -125 4 -125 8 0 4 48 56 106 116 59 60 114 124 122 142 52
103 21 205 -73 243 -47 19 -143 19 -209 -2z"/>
<path d="M7245 5119 c-11 -4 -32 -8 -46 -8 -21 -1 -28 -7 -31 -29 -5 -35 0
-54 13 -46 19 11 66 18 137 18 69 1 75 -1 98 -27 15 -17 24 -40 24 -60 -1 -60
-41 -87 -130 -89 l-60 -2 0 -31 0 -32 61 -2 c67 -1 110 -20 130 -57 29 -56 13
-113 -42 -143 -32 -19 -52 -22 -107 -20 -37 2 -81 9 -99 16 -44 18 -45 18 -41
-24 2 -22 9 -37 18 -39 8 -2 26 -6 40 -9 14 -4 54 -8 89 -10 144 -7 232 59
234 175 0 60 -33 115 -80 132 l-32 12 39 25 c47 30 61 60 56 124 -3 54 -30 90
-86 114 -39 16 -155 24 -185 12z"/>
<path d="M3726 5113 c-1 -2 -23 -6 -47 -9 -72 -10 -86 -19 -84 -51 1 -31 11
-33 95 -20 l45 8 0 -220 c0 -214 -1 -220 -20 -220 -11 0 -40 0 -65 -1 l-46 -2
4 -33 4 -34 163 0 c172 0 184 3 168 47 -9 24 -24 32 -42 23 -9 -4 -32 -5 -51
-2 l-35 6 -1 250 c-1 138 -2 253 -3 256 -1 5 -79 7 -85 2z"/>
<path d="M6178 5058 c-2 -7 -3 -80 -3 -163 1 -124 3 -150 15 -150 8 0 20 6 26
13 9 12 13 12 25 -1 18 -18 81 -16 104 3 25 21 42 71 39 119 -4 79 -80 128
-141 91 l-30 -18 2 47 c2 55 -3 71 -20 71 -7 0 -15 -6 -17 -12z m151 -139 c27
-45 13 -138 -22 -140 -7 0 -20 -2 -29 -4 -18 -3 -58 29 -59 48 0 7 -2 24 -4
38 -2 15 5 40 16 58 26 43 72 44 98 0z"/>
<path d="M4215 5001 c-11 -5 -22 -7 -25 -5 -3 1 -25 -15 -49 -37 -149 -133
-10 -373 178 -309 59 20 68 27 55 40 -7 7 -21 5 -43 -6 -85 -42 -182 0 -215
93 -8 22 -13 43 -11 45 2 1 5 17 8 34 7 47 34 81 82 104 93 45 203 -1 218 -91
7 -49 -23 -108 -56 -109 -5 0 -8 21 -7 48 4 97 2 105 -21 99 -12 -3 -31 -2
-43 3 -59 22 -109 -20 -109 -92 0 -33 6 -47 27 -65 28 -23 80 -31 91 -13 3 6
13 10 21 10 8 0 12 -4 9 -10 -9 -15 32 -12 64 4 72 38 74 153 5 217 -47 43
-127 61 -179 40z m78 -127 c36 -21 27 -96 -14 -109 -37 -12 -69 13 -69 53 0
58 37 83 83 56z"/>
<path d="M5985 4985 c-5 -2 -22 -6 -37 -9 -19 -4 -28 -13 -28 -27 0 -16 3 -18
19 -9 29 15 87 12 105 -6 30 -29 20 -43 -33 -42 -27 0 -58 -5 -70 -12 -45 -24
-48 -99 -5 -127 26 -17 96 -12 102 7 5 15 22 12 22 -4 0 -8 8 -13 18 -12 13 2
18 15 20 62 5 89 -6 142 -31 158 -24 15 -66 26 -82 21z m75 -149 c0 -44 -64
-79 -98 -54 -21 16 -27 54 -10 64 15 10 90 22 101 17 4 -3 7 -14 7 -27z"/>
<path d="M6505 4976 c-46 -20 -67 -51 -72 -103 -7 -81 40 -133 120 -133 38 0
60 12 63 34 1 9 -1 14 -5 11 -20 -12 -74 -14 -94 -4 -34 19 -45 40 -44 87 2
59 38 87 103 78 34 -4 44 -2 44 9 0 24 -75 38 -115 21z"/>
<path d="M7830 4929 c0 -60 -1 -61 -18 -46 -10 10 -33 19 -51 21 -85 10 -135
-140 -72 -213 26 -30 81 -38 115 -16 23 16 26 16 26 1 0 -9 3 -16 8 -16 25 1
29 23 28 170 -1 139 -3 155 -18 158 -16 3 -18 -5 -18 -59z m-34 -67 c40 -26
45 -107 9 -146 -13 -14 -28 -26 -32 -26 -29 1 -53 16 -63 40 -16 39 -7 110 16
127 20 14 53 17 70 5z"/>
<path d="M8238 4970 c-16 -13 -24 -30 -27 -62 -1 -5 -7 -8 -15 -8 -8 0 -16 -7
-20 -15 -4 -10 1 -15 14 -15 22 0 22 0 22 -120 0 -69 7 -89 31 -90 4 0 7 47 7
105 0 58 3 104 8 104 4 -1 20 -1 35 0 32 1 33 25 1 27 -10 1 -25 2 -31 3 -21
2 -15 39 7 51 11 6 24 9 29 6 5 -3 14 1 20 8 24 29 -47 34 -81 6z"/>
<path d="M8004 4899 c-12 -4 -33 -22 -48 -40 -25 -29 -28 -39 -24 -87 6 -74
38 -106 108 -108 67 -3 87 4 93 28 5 17 2 19 -21 13 -83 -22 -122 -10 -137 43
-7 25 -6 25 107 23 l67 -1 -6 38 c-7 43 -30 79 -56 88 -31 10 -62 11 -83 3z
m72 -37 c21 -14 35 -50 21 -55 -23 -8 -120 -2 -124 8 -11 33 70 70 103 47z"/>
<path d="M6833 4174 c-17 -9 -35 -23 -40 -32 -4 -10 -10 -235 -13 -502 l-5
-485 -773 0 c-426 -1 -776 3 -779 8 -3 4 -6 217 -6 472 l-2 465 -28 27 -27 28
-855 1 c-805 0 -857 -1 -885 -17 -66 -41 -47 -161 28 -177 9 -1 366 -4 793 -4
l777 -1 -1 -469 0 -470 32 -31 31 -32 903 -1 c533 0 915 4 933 9 65 20 64 14
64 545 l0 480 786 0 c757 0 787 1 812 19 14 10 31 35 38 55 10 29 9 40 -4 67
-30 62 11 59 -907 60 -741 0 -844 -1 -872 -15z"/>
<path d="M5420 3698 l0 -147 38 13 c51 18 140 14 177 -8 38 -22 55 -58 55
-117 0 -113 -129 -157 -281 -94 -14 5 -16 0 -14 -30 1 -21 8 -41 16 -46 22
-13 115 -22 167 -16 67 8 74 10 113 34 107 62 104 257 -5 329 -39 25 -118 36
-171 24 -18 -5 -20 1 -23 66 l-3 71 103 -1 c136 -2 140 -1 136 38 l-3 31 -152
0 -153 0 0 -147z"/>
<path d="M5922 3731 c1 -18 7 -28 18 -27 34 2 34 40 -1 49 -16 4 -19 0 -17
-22z"/>
<path d="M6039 3740 c-1 -21 -1 -260 0 -287 1 -16 7 -23 20 -23 16 0 18 7 17
55 -1 30 0 55 2 55 3 0 30 -25 60 -55 38 -38 63 -55 81 -55 24 0 21 5 -38 62
l-63 61 48 44 c27 24 52 43 56 43 5 0 8 5 8 10 0 24 -46 6 -92 -35 -28 -25
-53 -43 -57 -41 -4 3 -6 44 -5 93 1 80 -1 89 -18 89 -10 0 -18 -7 -19 -16z"/>
<path d="M6292 3742 c-4 -9 -7 -82 -7 -162 1 -137 2 -145 20 -148 19 -3 20 3
20 157 0 119 -3 162 -12 165 -7 3 -16 -2 -21 -12z"/>
<path d="M7317 3675 c-108 -37 -160 -129 -162 -290 -4 -197 66 -298 205 -299
90 0 169 58 186 136 9 44 5 113 -10 148 -44 106 -176 144 -268 77 l-41 -29 7
43 c20 126 103 183 221 152 28 -7 53 -13 56 -13 5 0 5 30 0 61 -3 23 -141 32
-194 14z m123 -294 c49 -58 35 -190 -23 -219 -50 -25 -101 -18 -136 18 -32 34
-39 57 -36 120 4 74 55 120 128 116 32 -2 47 -10 67 -35z"/>
<path d="M3747 3659 c-9 -9 -21 -28 -28 -40 -6 -13 -16 -28 -21 -33 -15 -19
-166 -253 -175 -272 -5 -11 -8 -32 -8 -49 l0 -30 90 -2 c50 -1 109 -2 133 -2
l42 -1 -2 -58 c-3 -69 3 -81 42 -80 33 1 32 0 35 73 2 28 3 55 4 60 0 6 18 9
41 7 40 -4 40 -4 40 32 0 34 -1 35 -36 32 -19 -1 -38 2 -42 8 -3 6 -6 92 -7
191 l0 180 -47 1 c-33 1 -51 -4 -61 -17z m31 -209 c0 -170 11 -152 -93 -152
-117 0 -113 -13 -32 115 39 61 76 115 80 118 5 3 8 9 8 13 -1 5 30 55 36 56 0
0 1 -67 1 -150z"/>
<path d="M5921 3598 c-1 -35 -1 -72 -1 -83 2 -123 -4 -145 -37 -145 -8 0 -13
-6 -10 -12 6 -19 60 -12 75 9 7 10 12 29 11 43 0 14 0 30 1 35 1 9 2 175 1
203 -1 6 -10 12 -20 12 -17 0 -20 -8 -20 -62z"/>
<path d="M4374 3588 c-5 -7 -9 -74 -8 -148 2 -180 1 -172 21 -168 15 3 18 15
18 74 1 91 17 124 60 124 48 0 57 -18 57 -115 1 -77 3 -85 21 -85 17 0 19 6
15 56 -3 30 -1 57 3 59 8 6 -3 62 -20 93 -6 12 -19 23 -29 24 -9 0 -24 2 -32
3 -8 1 -27 -5 -42 -12 -15 -7 -29 -13 -31 -13 -2 0 -3 23 -2 50 2 52 -14 81
-31 58z"/>
<path d="M4635 3568 c2 -31 40 -32 40 -1 0 17 -6 23 -21 23 -15 0 -20 -6 -19
-22z"/>
<path d="M4119 3482 c-26 -24 -33 -37 -35 -76 -1 -26 2 -60 7 -76 20 -55 85
-76 134 -44 27 18 31 11 19 -33 -8 -31 -73 -51 -110 -34 -23 10 -25 9 -22 -11
4 -33 84 -38 132 -9 40 25 43 35 44 184 1 96 -1 116 -14 121 -10 4 -18 -1 -21
-13 -5 -19 -6 -19 -24 -3 -30 29 -74 26 -110 -6z m114 -33 c18 -22 21 -47 11
-97 -7 -34 -43 -55 -79 -46 -29 7 -37 24 -41 86 -2 41 1 50 22 67 30 23 62 20
87 -10z"/>
<path d="M4643 3497 c-4 -6 -7 -60 -8 -120 -1 -103 0 -108 20 -105 19 3 20 10
20 115 0 80 -4 114 -12 117 -7 3 -16 0 -20 -7z"/>
<path d="M7683 3503 c-9 -3 -13 -37 -13 -119 0 -107 1 -114 20 -114 18 0 20 7
20 79 0 60 4 84 18 100 22 27 57 34 77 15 15 -16 17 -24 17 -131 0 -55 3 -63
19 -63 17 0 19 8 19 76 0 41 5 84 11 95 14 27 49 39 77 26 23 -11 26 -31 23
-149 -1 -43 1 -48 20 -48 20 0 21 4 17 100 -3 107 -12 126 -59 135 -29 6 -75
-11 -83 -31 -4 -10 -12 -8 -33 12 -22 21 -35 25 -62 20 -19 -3 -38 -11 -42
-18 -6 -10 -11 -9 -21 3 -7 9 -19 15 -25 12z"/>
<path d="M8089 3503 c-1 -5 -2 -59 -3 -121 -1 -107 0 -113 18 -110 18 3 20 11
21 86 2 92 13 115 60 115 47 0 58 -22 59 -117 0 -76 3 -86 18 -86 18 0 21 15
20 101 -2 65 -21 128 -40 130 -4 0 -18 2 -31 5 -13 2 -36 -2 -52 -10 -24 -12
-30 -12 -40 0 -12 15 -28 19 -30 7z"/>
<path d="M8405 3501 c-11 -5 -29 -19 -40 -31 -26 -28 -29 -123 -6 -159 39 -60
139 -62 173 -3 31 52 25 135 -13 173 -22 22 -85 33 -114 20z m88 -49 c23 -21
22 -115 -2 -136 -47 -39 -97 -15 -107 51 -6 43 13 96 38 106 18 7 50 -2 71
-21z"/>
<path d="M6841 2884 c-30 -13 -51 -35 -56 -61 -2 -10 -4 -231 -4 -490 l-1
-473 -782 0 -783 0 0 473 c0 460 -1 473 -20 494 -11 12 -31 26 -45 31 -14 4
-404 8 -868 7 l-842 0 -29 -30 c-29 -29 -35 -46 -32 -92 1 -23 43 -72 64 -74
7 -1 359 -3 782 -4 424 -2 775 -3 781 -4 8 -1 11 -128 11 -459 0 -496 0 -504
54 -529 20 -10 226 -13 920 -13 492 0 901 2 909 3 24 4 45 20 63 47 15 22 17
70 17 502 0 375 3 478 13 479 6 1 359 2 782 3 424 1 779 6 790 11 35 15 47 35
52 79 5 37 1 48 -25 77 l-29 33 -848 0 c-594 1 -856 -2 -874 -10z"/>
<path d="M5515 2577 c-78 -31 -105 -66 -105 -139 1 -53 15 -80 59 -112 l34
-25 -24 -10 c-30 -11 -65 -48 -77 -81 -20 -54 2 -145 44 -181 44 -37 142 -54
220 -37 92 19 147 121 119 220 -8 32 -68 88 -92 88 -10 0 1 12 25 27 47 31 63
66 58 129 -4 52 -30 88 -82 114 -45 23 -130 26 -179 7z m118 -56 c10 -1 29
-12 42 -26 36 -35 35 -97 -1 -130 -15 -14 -33 -26 -40 -26 -8 -1 -24 -2 -36
-3 -68 -6 -122 48 -108 108 4 19 11 39 15 46 11 17 67 39 90 35 11 -2 28 -4
38 -4z m53 -284 c44 -47 30 -147 -24 -176 -48 -26 -146 -8 -171 30 -21 35 -21
93 0 128 25 41 52 52 117 48 43 -3 59 -9 78 -30z"/>
<path d="M5950 2404 c0 -19 -4 -33 -9 -30 -5 3 -12 -1 -15 -9 -3 -9 1 -18 9
-21 12 -5 15 -25 15 -85 0 -66 3 -82 20 -99 25 -25 100 -29 100 -5 0 8 -10 16
-22 17 -13 0 -30 1 -38 2 -12 1 -16 19 -18 88 l-3 87 41 -4 c30 -3 40 -1 40
10 0 11 -12 15 -40 15 -39 0 -40 1 -40 33 0 26 -4 33 -20 34 -16 1 -20 -4 -20
-33z"/>
<path d="M6116 2372 c-2 -4 -3 -46 -2 -93 2 -62 7 -94 19 -113 10 -14 21 -26
25 -27 46 -6 67 -3 88 13 20 17 24 17 24 4 0 -9 8 -16 19 -16 18 0 20 8 20
115 1 108 0 115 -19 115 -18 0 -20 -7 -20 -78 0 -90 -15 -122 -59 -122 -39 0
-59 27 -59 80 -1 105 -2 118 -17 123 -8 4 -16 3 -19 -1z"/>
<path d="M6379 2372 c-15 -6 -12 -20 26 -117 36 -94 45 -110 66 -113 18 -2 27
4 36 25 15 36 31 77 31 83 0 3 11 31 25 63 l26 57 -23 0 c-19 0 -27 -9 -39
-48 -9 -26 -25 -68 -35 -92 l-20 -45 -11 30 c-6 17 -15 39 -20 50 -5 11 -17
41 -27 68 -9 26 -17 47 -18 46 0 0 -8 -3 -17 -7z"/>
<path d="M3529 2340 c-9 -6 -15 -21 -14 -37 l1 -28 137 -3 c75 -1 137 -5 137
-7 0 -6 -48 -135 -59 -160 -17 -36 -131 -336 -131 -343 0 -4 17 -7 38 -7 45 0
37 -15 138 250 139 361 134 336 72 335 -24 0 -51 0 -60 0 -10 1 -65 0 -123 0
-57 -1 -108 1 -112 3 -5 3 -16 1 -24 -3z"/>
<path d="M7251 2327 c-25 -12 -55 -39 -70 -61 -22 -33 -26 -50 -26 -116 0 -66
4 -82 27 -117 31 -47 85 -75 148 -78 49 -2 112 23 129 52 9 15 10 13 11 -13 0
-55 -30 -123 -68 -152 -31 -23 -44 -27 -101 -26 -36 0 -76 6 -88 13 -18 9 -23
9 -24 -1 0 -7 -2 -23 -3 -35 -3 -27 27 -41 104 -47 100 -7 181 39 224 126 30
64 38 102 38 189 -1 116 -36 208 -98 255 -49 38 -140 43 -203 11z m144 -53
c45 -18 69 -72 62 -138 -8 -77 -43 -114 -113 -120 -27 -2 -43 4 -71 29 -32 27
-37 38 -41 87 -9 117 64 181 163 142z"/>
<path d="M4009 2198 c-7 -71 -2 -304 6 -310 24 -17 31 -6 30 47 -1 40 2 55 12
55 7 0 13 -4 13 -10 0 -5 21 -10 48 -10 42 0 49 4 70 34 38 55 30 150 -15 186
-31 24 -63 25 -105 4 -16 -9 -27 -11 -24 -6 3 6 -1 13 -10 16 -22 8 -24 8 -25
-6z m147 -46 c23 -30 21 -107 -3 -134 -39 -43 -111 -3 -107 58 1 16 3 37 3 47
1 9 10 26 20 36 23 23 67 19 87 -7z"/>
<path d="M4315 2198 c-31 -18 -43 -39 -51 -85 -8 -53 10 -109 43 -130 31 -20
80 -18 105 4 17 15 18 13 18 -46 0 -54 2 -62 18 -59 15 3 17 19 19 143 3 155
0 185 -22 185 -8 0 -14 -3 -14 -7 3 -21 -3 -23 -23 -9 -26 19 -65 20 -93 4z
m98 -49 c15 -18 18 -34 14 -72 -7 -73 -58 -100 -106 -56 -17 16 -21 30 -19 67
4 83 66 117 111 61z"/>
<path d="M4548 2197 c-3 -7 -4 -59 -3 -117 0 -97 2 -105 20 -105 17 0 19 8 20
82 1 94 11 113 66 117 19 1 33 6 32 9 -2 4 -3 12 -3 17 0 14 -59 8 -72 -7 -13
-16 -29 -17 -25 -2 3 15 -31 20 -35 6z"/>
<path d="M4743 2198 c-28 -13 -43 -56 -31 -84 9 -19 32 -29 105 -50 6 -1 17
-12 23 -23 9 -17 6 -22 -17 -34 -23 -12 -35 -12 -70 -2 -34 10 -43 10 -47 -1
-8 -21 20 -35 72 -36 53 0 98 21 105 50 6 28 -21 69 -53 80 -16 6 -30 9 -30 6
0 -2 -13 2 -30 11 -34 17 -37 27 -15 48 10 10 30 14 65 11 37 -3 50 0 50 10 0
8 -7 17 -16 20 -24 9 -86 6 -111 -6z"/>
<path d="M7657 2204 c-3 -3 -1 -18 4 -33 6 -14 10 -28 9 -31 -1 -8 20 -93 33
-131 7 -19 18 -34 25 -33 6 1 16 2 21 3 5 0 14 22 20 49 26 106 32 122 43 122
6 0 9 -3 6 -6 -3 -3 1 -29 9 -57 8 -29 18 -65 22 -81 4 -21 13 -30 29 -31 18
-1 24 6 34 39 6 23 13 50 15 61 2 11 11 42 19 68 12 36 13 52 5 60 -13 13 -30
0 -35 -29 -2 -10 -12 -46 -22 -79 l-17 -60 -14 45 c-7 25 -15 52 -17 60 -12
59 -19 71 -39 68 -17 -2 -25 -17 -40 -73 -27 -97 -27 -98 -33 -93 -2 3 -6 15
-9 27 -2 11 -6 25 -9 29 -3 5 -8 24 -11 43 -3 19 -8 42 -11 52 -5 17 -25 23
-37 11z"/>
<path d="M8010 2196 c0 -8 3 -16 8 -18 4 -1 19 -20 35 -40 24 -33 26 -40 15
-60 -7 -13 -15 -25 -18 -28 -14 -13 -50 -63 -50 -70 0 -16 42 -1 57 21 45 64
55 66 86 17 20 -32 53 -52 68 -42 6 3 7 9 3 13 -5 3 -26 27 -47 53 -38 47 -38
47 -20 75 10 15 23 34 30 41 7 8 18 22 23 33 9 16 7 19 -9 19 -12 0 -31 -16
-48 -40 -15 -22 -31 -40 -35 -40 -4 0 -19 18 -35 40 -28 39 -63 54 -63 26z"/>
<path d="M8256 2188 c4 -13 24 -65 45 -117 35 -89 37 -96 23 -123 -8 -16 -23
-28 -34 -28 -23 0 -37 -20 -21 -30 18 -10 58 -1 74 19 11 12 76 164 124 288 3
7 -4 11 -16 10 -14 -1 -26 -14 -37 -42 -8 -22 -22 -53 -29 -70 -7 -16 -16 -39
-19 -49 -6 -19 -8 -18 -19 5 -7 13 -19 44 -27 69 -18 58 -38 90 -57 90 -10 0
-12 -6 -7 -22z"/>
<path d="M8510 2191 c0 -15 9 -17 65 -15 70 3 71 1 29 -46 -130 -146 -131
-155 -19 -155 91 -1 105 2 105 20 0 10 -16 13 -60 11 -33 -1 -64 0 -69 3 -5 4
22 42 60 85 94 107 92 114 -21 114 -79 0 -90 -2 -90 -17z"/>
<path d="M6917 1603 c-1 0 -18 -3 -37 -5 -51 -7 -69 -17 -85 -49 -13 -23 -15
-106 -15 -504 0 -445 -1 -475 -17 -476 -113 -3 -1537 1 -1540 5 -3 3 -5 209
-5 458 1 491 -1 502 -54 527 -38 17 -1700 15 -1734 -2 -37 -18 -60 -71 -49
-110 8 -28 52 -77 68 -75 3 0 357 0 787 -1 l781 -1 0 -463 c0 -337 3 -469 12
-485 30 -57 -16 -54 923 -53 475 0 886 0 913 1 37 0 58 6 80 24 l30 24 5 489
5 488 45 2 c25 1 72 2 105 2 33 0 71 1 85 1 14 1 31 2 38 2 6 -1 132 -1 280
-1 147 1 278 0 292 -1 14 -1 32 -2 40 -1 8 0 58 0 110 0 52 0 101 0 108 0 13
0 75 1 95 0 6 0 93 0 193 1 170 1 182 2 208 23 38 31 47 101 18 135 -22 25
-108 56 -117 42 -3 -4 -20 -4 -39 0 -19 4 -39 4 -46 0 -7 -4 -26 -4 -44 0 -17
4 -33 7 -36 8 -3 1 -22 -3 -43 -7 -20 -5 -39 -5 -42 -1 -3 4 -20 4 -39 0 -19
-4 -37 -6 -39 -3 -7 6 -374 6 -385 -1 -6 -3 -13 -2 -16 3 -3 5 -21 5 -41 1
-19 -4 -51 -4 -70 0 -19 4 -37 4 -40 0 -3 -5 -18 -5 -34 0 -15 4 -34 4 -41 0
-6 -4 -27 -4 -45 0 -18 4 -38 4 -45 0 -7 -4 -26 -4 -44 -1 -17 4 -42 6 -56 4
-23 -2 -38 -3 -95 -3 -47 0 -127 1 -223 3 -57 1 -104 1 -105 0z"/>
<path d="M5928 1303 c-91 -26 -137 -123 -136 -290 0 -109 9 -154 46 -219 54
-93 190 -112 272 -38 55 50 80 130 81 259 1 225 -100 336 -263 288z m131 -83
c39 -39 54 -114 49 -239 -5 -124 -29 -183 -82 -201 -76 -25 -130 22 -151 131
-8 36 -7 159 0 204 21 123 113 176 184 105z"/>
<path d="M7770 1155 c-5 -14 -12 -38 -15 -53 -11 -65 -17 -82 -28 -83 -7 -1
-38 -1 -69 0 -32 1 -58 -2 -59 -6 0 -4 -2 -16 -4 -25 -5 -25 11 -32 70 -32 44
-1 50 -3 48 -21 -3 -27 -20 -95 -26 -101 -2 -3 -34 -5 -69 -5 -65 -1 -65 -1
-66 -30 -1 -29 0 -29 59 -29 l60 0 -7 -37 c-4 -21 -12 -57 -19 -80 -7 -24 -10
-43 -7 -44 4 0 14 -2 23 -4 31 -6 39 10 68 130 6 29 9 30 65 32 l58 3 -7 -28
c-3 -15 -11 -45 -17 -67 -18 -61 -16 -69 15 -70 24 -2 29 3 42 47 8 27 17 65
21 84 l6 34 63 -1 c71 -2 85 3 80 29 -2 9 -4 20 -4 25 -1 4 -26 7 -56 6 -30
-1 -57 0 -60 3 -2 2 -1 20 4 39 5 19 12 46 15 60 5 25 10 27 58 27 88 0 87 -1
85 30 -2 26 -5 27 -57 28 -48 0 -55 3 -54 20 3 40 13 90 23 117 10 26 9 27
-23 27 -30 0 -34 -4 -41 -32 -4 -18 -8 -35 -9 -38 -1 -3 -5 -22 -9 -42 -9 -42
-27 -55 -73 -53 -47 3 -54 10 -42 51 5 20 12 45 14 55 2 11 6 28 8 39 4 17 0
20 -25 20 -22 0 -32 -6 -39 -25z m116 -234 c-4 -20 -9 -43 -11 -51 -2 -8 -4
-21 -4 -27 -1 -9 -20 -13 -61 -13 l-59 0 13 45 c8 25 12 45 10 45 -3 0 0 9 5
19 8 15 21 19 62 18 l51 0 -6 -36z"/>
<path d="M4169 1057 c0 -12 -1 -46 -1 -74 0 -29 -2 -53 -4 -53 -3 0 -31 18
-64 39 l-59 39 -15 -22 c-14 -22 -12 -23 50 -52 35 -16 64 -34 64 -40 0 -7
-26 -25 -57 -42 -61 -31 -68 -39 -54 -61 7 -11 21 -7 69 23 33 20 62 36 66 36
3 0 6 -32 6 -71 0 -67 1 -70 23 -67 20 3 22 8 20 71 -1 37 1 67 4 67 9 0 87
-43 106 -59 15 -13 19 -12 31 5 13 17 11 21 -23 41 -20 12 -40 23 -46 23 -5 0
-20 8 -33 18 l-23 18 69 34 c62 32 67 37 58 56 l-11 22 -45 -26 c-25 -14 -53
-32 -62 -40 -21 -17 -21 -17 -22 67 -1 58 -3 64 -24 67 -17 3 -22 -1 -23 -19z"/>
</g>
</svg>
